<?xml version="1.0" encoding="utf-8"?>
<!-- Generator: Adobe Illustrator 16.0.0, SVG Export Plug-In . SVG Version: 6.00 Build 0)  -->
<!DOCTYPE svg PUBLIC "-//W3C//DTD SVG 1.1//EN" "http://www.w3.org/Graphics/SVG/1.1/DTD/svg11.dtd">
<svg version="1.1" id="图层_1" xmlns="http://www.w3.org/2000/svg" xmlns:xlink="http://www.w3.org/1999/xlink" x="0px" y="0px"
	 width="170.08px" height="170.08px" viewBox="0 0 170.08 170.08" enable-background="new 0 0 170.08 170.08" xml:space="preserve">
<g>
	<path fill="#E64637" d="M1.863,96.811c0,39.576,32.083,71.66,71.66,71.66c39.577,0,71.661-32.084,71.661-71.66
		c0-39.576-32.084-71.659-71.661-71.659C33.946,25.151,1.863,57.235,1.863,96.811z"/>
	<path fill="#FFFFFF" d="M73.522,44.487c-28.906,0-52.324,23.418-52.324,52.323c0,28.906,23.438,52.324,52.324,52.324
		c28.907,0,52.325-23.418,52.325-52.324C125.848,67.905,102.43,44.487,73.522,44.487z M73.522,126.537
		c-16.406,0-29.707-13.301-29.707-29.707c0-16.405,13.301-29.706,29.707-29.706c16.407,0,29.708,13.301,29.708,29.706
		C103.25,113.236,89.949,126.537,73.522,126.537z"/>
	<path fill="#D83B35" d="M102.117,140.639l11.602,15.527c2.07-1.406,4.043-2.891,5.938-4.492l-11.602-15.527
		C106.18,137.768,104.207,139.271,102.117,140.639z M70.203,97.943l18.34,24.531c2.148-1.27,4.141-2.793,5.898-4.551L75.495,92.592
		L70.203,97.943z"/>
	<path fill="#E69696" d="M94.441,117.924c-1.758,1.758-3.75,3.281-5.898,4.551l13.574,18.164c2.09-1.367,4.063-2.871,5.938-4.512
		L94.441,117.924z"/>
	<path fill="#36474F" d="M134.676,62.456l-20.02-3.535l33.887-33.867c0.41-0.41,0.977-0.586,1.523-0.488l16.719,2.949
		c1.387,0.254,1.914,1.953,0.918,2.949l-31.504,31.504C135.809,62.378,135.223,62.554,134.676,62.456z M143.934,20.151
		l-2.949-16.719c-0.254-1.387-1.953-1.914-2.949-0.918l-31.523,31.504c-0.41,0.41-0.586,0.977-0.488,1.523l3.535,20.02
		l33.887-33.867C143.836,21.284,144.031,20.718,143.934,20.151z"/>
	<path fill="#455963" d="M70.749,98.607c-1.367-1.367-1.367-3.555,0-4.922l81.915-81.913c1.367-1.367,3.555-1.367,4.922,0
		s1.367,3.555,0,4.922L75.671,98.607C74.304,99.975,72.097,99.975,70.749,98.607z"/>
</g>
</svg>
