<?xml version="1.0" standalone="no"?><!DOCTYPE svg PUBLIC "-//W3C//DTD SVG 1.1//EN" "http://www.w3.org/Graphics/SVG/1.1/DTD/svg11.dtd"><svg t="1499152569837" class="icon" style="" viewBox="0 0 1024 1024" version="1.1" xmlns="http://www.w3.org/2000/svg" p-id="16732" xmlns:xlink="http://www.w3.org/1999/xlink" width="200" height="200"><defs><style type="text/css"></style></defs><path d="M927.891082 520.258081 96.107895 520.258081c-10.610662 0-19.21462 8.603959-19.21462 19.215644l0 174.085874c0 10.611685 8.603959 19.21462 19.21462 19.21462l831.783187 0c10.611685 0 19.21462-8.602935 19.21462-19.21462L947.105702 539.473725C947.106726 528.86204 938.502767 520.258081 927.891082 520.258081L927.891082 520.258081zM687.674045 651.073452l-49.111534 0 0-49.107441 49.111534 0L687.674045 651.073452 687.674045 651.073452zM785.898137 651.073452l-49.116651 0 0-49.107441 49.116651 0L785.898137 651.073452 785.898137 651.073452zM884.111996 651.073452l-49.107441 0 0-49.107441 49.107441 0L884.111996 651.073452 884.111996 651.073452zM884.111996 651.073452" p-id="16733" fill="#38bdd7"></path><path d="M190.841489 291.224758l-29.958312 0c-8.292873 0-15.650445 5.319146-18.248619 13.19758l-57.417711 174.085874c-4.099365 12.431124 5.15644 25.233708 18.247596 25.233708l808.685119 0c13.120832 0 22.381753-12.858866 18.226107-25.303292l0 0-58.153468-174.086897c-2.618641-7.838525-9.958816-13.126972-18.222013-13.126972L593.46643 291.224758M549.997406 291.224758 234.305397 291.224758M930.375669 478.438627" p-id="16734" fill="#38bdd7"></path></svg>